<?xml version="1.0" encoding="UTF-8" standalone="no" ?>
<!DOCTYPE svg PUBLIC "-//W3C//DTD SVG 1.1//EN" "http://www.w3.org/Graphics/SVG/1.1/DTD/svg11.dtd">
<svg xmlns="http://www.w3.org/2000/svg" xmlns:xlink="http://www.w3.org/1999/xlink" version="1.1" width="1280" height="1024" viewBox="0 0 1280 1024" xml:space="preserve">
<desc>Created with Fabric.js 5.3.0</desc>
<defs>
</defs>

<g transform="matrix(1.9211538461538462 0 0 1.9211538461538462 640 396.73178653671164)" id="logo-logo"  >
<g style=""  paint-order="stroke"   >
		<g transform="matrix(0.025776660394303676 -0.020873528016397233 -0.7746653495189574 -0.9566320373871913 55.52925342767986 -14.675391027963315)"  >
<g style=""  paint-order="stroke"   >
		<g transform="matrix(1 0 0 1 0 0)"  >
<polygon style="stroke: none; stroke-width: 1; stroke-dasharray: none; stroke-linecap: butt; stroke-dashoffset: 0; stroke-linejoin: miter; stroke-miterlimit: 4; fill: rgb(0,0,0); fill-rule: nonzero; opacity: 1;"  paint-order="stroke"  points="100,-50 -100,-50 -100,50 100,50 100,-50 100,-50 " />
</g>
</g>
</g>
		<g transform="matrix(0.01854751395818475 -0.027497820257349977 -1.0205082975880244 -0.6883415382314865 -20.746030103547923 -1.9232952942733732)"  >
<g style=""  paint-order="stroke"   >
		<g transform="matrix(1 0 0 1 0 0)"  >
<polygon style="stroke: none; stroke-width: 1; stroke-dasharray: none; stroke-linecap: butt; stroke-dashoffset: 0; stroke-linejoin: miter; stroke-miterlimit: 4; fill: rgb(124,124,124); fill-rule: nonzero; opacity: 1;"  paint-order="stroke"  points="100,-50 -100,-50 -100,50 100,50 100,-50 100,-50 " />
</g>
</g>
</g>
		<g transform="matrix(0.0307531718976485 -0.012425087974266716 -0.46112401846146756 -1.1413219958884715 -55.54515319855835 20.449585692926803)"  >
<g style=""  paint-order="stroke"   >
		<g transform="matrix(1 0 0 1 0 0)"  >
<polygon style="stroke: none; stroke-width: 1; stroke-dasharray: none; stroke-linecap: butt; stroke-dashoffset: 0; stroke-linejoin: miter; stroke-miterlimit: 4; fill: rgb(124,124,124); fill-rule: nonzero; opacity: 1;"  paint-order="stroke"  points="100,-50 -100,-50 -100,50 100,50 100,-50 100,-50 " />
</g>
</g>
</g>
		<g transform="matrix(0 0.11835182360087314 -0.11835182360087314 0 -81.17519997778885 -43.14724199621159)"  >
<g style=""  paint-order="stroke"   >
		<g transform="matrix(1 0 0 1 0 0)"  >
<path style="stroke: none; stroke-width: 1; stroke-dasharray: none; stroke-linecap: butt; stroke-dashoffset: 0; stroke-linejoin: miter; stroke-miterlimit: 4; fill: rgb(124,124,124); fill-rule: nonzero; opacity: 1;"  paint-order="stroke"  transform=" translate(-125, -125)" d="M 250 125 C 250 194.0356 194.0356 250 125 250 C 55.96440000000001 250 0 194.0356 0 125 C 0 55.96440000000001 55.96441 0 125 0 C 194.03559 0 250 55.96441 250 125 z" stroke-linecap="round" />
</g>
</g>
</g>
		<g transform="matrix(-0.012959912428379398 -0.030531640355266242 -1.1331004432321987 0.48097260238800954 32.1341361716718 62.02590265900042)"  >
<g style=""  paint-order="stroke"   >
		<g transform="matrix(1 0 0 1 0 0)"  >
<polygon style="stroke: none; stroke-width: 1; stroke-dasharray: none; stroke-linecap: butt; stroke-dashoffset: 0; stroke-linejoin: miter; stroke-miterlimit: 4; fill: rgb(103,103,103); fill-rule: nonzero; opacity: 1;"  paint-order="stroke"  points="100,-50 -100,-50 -100,50 100,50 100,-50 100,-50 " />
</g>
</g>
</g>
		<g transform="matrix(0 0.11835182360087314 -0.11835182360087314 0 95.96917792789804 34.372554627875985)"  >
<g style=""  paint-order="stroke"   >
		<g transform="matrix(1 0 0 1 0 0)"  >
<path style="stroke: none; stroke-width: 1; stroke-dasharray: none; stroke-linecap: butt; stroke-dashoffset: 0; stroke-linejoin: miter; stroke-miterlimit: 4; fill: rgb(103,103,103); fill-rule: nonzero; opacity: 1;"  paint-order="stroke"  transform=" translate(-125, -125)" d="M 250 125 C 250 194.0356 194.0356 250 125 250 C 55.96440000000001 250 0 194.0356 0 125 C 0 55.96440000000001 55.96441 0 125 0 C 194.03559 0 250 55.96441 250 125 z" stroke-linecap="round" />
</g>
</g>
</g>
		<g transform="matrix(0 0.11835182360087314 -0.11835182360087314 0 -27.67161705540002 86.63308760404763)"  >
<g style=""  paint-order="stroke"   >
		<g transform="matrix(1 0 0 1 0 0)"  >
<path style="stroke: none; stroke-width: 1; stroke-dasharray: none; stroke-linecap: butt; stroke-dashoffset: 0; stroke-linejoin: miter; stroke-miterlimit: 4; fill: rgb(103,103,103); fill-rule: nonzero; opacity: 1;"  paint-order="stroke"  transform=" translate(-125, -125)" d="M 250 125 C 250 194.0356 194.0356 250 125 250 C 55.96440000000001 250 0 194.0356 0 125 C 0 55.96440000000001 55.96441 0 125 0 C 194.03559 0 250 55.96441 250 125 z" stroke-linecap="round" />
</g>
</g>
</g>
		<g transform="matrix(0 0.11835182360087314 -0.11835182360087314 0 16.46914920640262 -63.72333668380256)"  >
<g style=""  paint-order="stroke"   >
		<g transform="matrix(1 0 0 1 0 0)"  >
<path style="stroke: none; stroke-width: 1; stroke-dasharray: none; stroke-linecap: butt; stroke-dashoffset: 0; stroke-linejoin: miter; stroke-miterlimit: 4; fill: rgb(0,0,0); fill-rule: nonzero; opacity: 1;"  paint-order="stroke"  transform=" translate(-125, -125)" d="M 250 125 C 250 194.0356 194.0356 250 125 250 C 55.96440000000001 250 0 194.0356 0 125 C 0 55.96440000000001 55.96441 0 125 0 C 194.03559 0 250 55.96441 250 125 z" stroke-linecap="round" />
</g>
</g>
</g>
		<g transform="matrix(-0.03231826130995768 -0.007461258528953194 -0.276904720737307 1.1994061173490336 49.21119833953287 -25.472868077311176)"  >
<g style=""  paint-order="stroke"   >
		<g transform="matrix(1 0 0 1 0 0)"  >
<polygon style="stroke: none; stroke-width: 1; stroke-dasharray: none; stroke-linecap: butt; stroke-dashoffset: 0; stroke-linejoin: miter; stroke-miterlimit: 4; fill: rgb(0,0,0); fill-rule: nonzero; opacity: 1;"  paint-order="stroke"  points="100,-50 -100,-50 -100,50 100,50 100,-50 100,-50 " />
</g>
</g>
</g>
		<g transform="matrix(0 0.11835182360087314 -0.11835182360087314 0 63.74184436697641 -88.80232684313845)"  >
<g style=""  paint-order="stroke"   >
		<g transform="matrix(1 0 0 1 0 0)"  >
<path style="stroke: none; stroke-width: 1; stroke-dasharray: none; stroke-linecap: butt; stroke-dashoffset: 0; stroke-linejoin: miter; stroke-miterlimit: 4; fill: rgb(0,0,0); fill-rule: nonzero; opacity: 1;"  paint-order="stroke"  transform=" translate(-125, -125)" d="M 250 125 C 250 194.0356 194.0356 250 125 250 C 55.96440000000001 250 0 194.0356 0 125 C 0 55.96440000000001 55.96441 0 125 0 C 194.03559 0 250 55.96441 250 125 z" stroke-linecap="round" />
</g>
</g>
</g>
		<g transform="matrix(0 -0.03316836433914981 -1.2309554251478385 0 -29.41363508572016 35.243563643036026)"  >
<g style=""  paint-order="stroke"   >
		<g transform="matrix(1 0 0 1 0 0)"  >
<polygon style="stroke: none; stroke-width: 1; stroke-dasharray: none; stroke-linecap: butt; stroke-dashoffset: 0; stroke-linejoin: miter; stroke-miterlimit: 4; fill: rgb(124,124,124); fill-rule: nonzero; opacity: 1;"  paint-order="stroke"  points="100,-50 -100,-50 -100,50 100,50 100,-50 100,-50 " />
</g>
</g>
</g>
		<g transform="matrix(0 -0.11835182360087314 -0.11835182360087314 0 -95.96917792789804 35.243563643036026)"  >
<g style=""  paint-order="stroke"   >
		<g transform="matrix(1 0 0 1 0 0)"  >
<path style="stroke: none; stroke-width: 1; stroke-dasharray: none; stroke-linecap: butt; stroke-dashoffset: 0; stroke-linejoin: miter; stroke-miterlimit: 4; fill: rgb(124,124,124); fill-rule: nonzero; opacity: 1;"  paint-order="stroke"  transform=" translate(-125, -125)" d="M 250 125 C 250 194.0356 194.0356 250 125 250 C 55.96440000000001 250 0 194.0356 0 125 C 0 55.96440000000001 55.96441 0 125 0 C 194.03559 0 250 55.96441 250 125 z" stroke-linecap="round" />
</g>
</g>
</g>
		<g transform="matrix(0 -0.11835182360087314 -0.11835182360087314 0 32.1341361716718 35.243563643036026)"  >
<g style=""  paint-order="stroke"   >
		<g transform="matrix(1 0 0 1 0 0)"  >
<path style="stroke: none; stroke-width: 1; stroke-dasharray: none; stroke-linecap: butt; stroke-dashoffset: 0; stroke-linejoin: miter; stroke-miterlimit: 4; fill: rgb(124,124,124); fill-rule: nonzero; opacity: 1;"  paint-order="stroke"  transform=" translate(-125, -125)" d="M 250 125 C 250 194.0356 194.0356 250 125 250 C 55.96440000000001 250 0 194.0356 0 125 C 0 55.96440000000001 55.96441 0 125 0 C 194.03559 0 250 55.96441 250 125 z" stroke-linecap="round" />
</g>
</g>
</g>
		<g transform="matrix(0 0.0726345342086117 -0.0726345342086117 0 47.86324679732178 94.51698801717114)"  >
<g style=""  paint-order="stroke"   >
		<g transform="matrix(1 0 0 1 0 0)"  >
<path style="stroke: none; stroke-width: 1; stroke-dasharray: none; stroke-linecap: butt; stroke-dashoffset: 0; stroke-linejoin: miter; stroke-miterlimit: 4; fill: rgb(0,0,0); fill-rule: nonzero; opacity: 1;"  paint-order="stroke"  transform=" translate(-125, -125)" d="M 250 125 C 250 194.0356 194.0356 250 125 250 C 55.96440000000001 250 0 194.0356 0 125 C 0 55.96440000000001 55.96441 0 125 0 C 194.03559 0 250 55.96441 250 125 z" stroke-linecap="round" />
</g>
</g>
</g>
		<g transform="matrix(0 0.0726345342086117 -0.0726345342086117 0 87.76087016698159 -39.090154231582744)"  >
<g style=""  paint-order="stroke"   >
		<g transform="matrix(1 0 0 1 0 0)"  >
<path style="stroke: none; stroke-width: 1; stroke-dasharray: none; stroke-linecap: butt; stroke-dashoffset: 0; stroke-linejoin: miter; stroke-miterlimit: 4; fill: rgb(124,124,124); fill-rule: nonzero; opacity: 1;"  paint-order="stroke"  transform=" translate(-125, -125)" d="M 250 125 C 250 194.0356 194.0356 250 125 250 C 55.96440000000001 250 0 194.0356 0 125 C 0 55.96440000000001 55.96441 0 125 0 C 194.03559 0 250 55.96441 250 125 z" stroke-linecap="round" />
</g>
</g>
</g>
		<g transform="matrix(0 0.0726345342086117 -0.0726345342086117 0 -30.498254705265595 -53.34578968379529)"  >
<g style=""  paint-order="stroke"   >
		<g transform="matrix(1 0 0 1 0 0)"  >
<path style="stroke: none; stroke-width: 1; stroke-dasharray: none; stroke-linecap: butt; stroke-dashoffset: 0; stroke-linejoin: miter; stroke-miterlimit: 4; fill: rgb(103,103,103); fill-rule: nonzero; opacity: 1;"  paint-order="stroke"  transform=" translate(-125, -125)" d="M 250 125 C 250 194.0356 194.0356 250 125 250 C 55.96440000000001 250 0 194.0356 0 125 C 0 55.96440000000001 55.96441 0 125 0 C 194.03559 0 250 55.96441 250 125 z" stroke-linecap="round" />
</g>
</g>
</g>
</g>
</g>
<g transform="matrix(1.9211538461538462 0 0 1.9211538461538462 639.8511105769231 693.6870737510494)" id="text-logo"  >
<g style=""  paint-order="stroke"   >
		<g transform="matrix(1 0 0 1 5.684342e-14 0)" id="text-logo-path-0"  >
<path style="stroke: none; stroke-width: 0; stroke-dasharray: none; stroke-linecap: butt; stroke-dashoffset: 0; stroke-linejoin: miter; stroke-miterlimit: 4; fill: rgb(0,0,0); fill-rule: nonzero; opacity: 1;"  paint-order="stroke"  transform=" translate(-205.53, 21.7)" d="M 16.31 -43.4 L 0.19 0 L 6.14 0 L 9.36 -8.99 L 30.44 -8.99 L 33.67 0 L 39.62 0 L 23.5 -43.4 Z M 11.1 -13.95 L 19.9 -38.56 L 28.71 -13.95 Z M 45.38 -43.4 L 45.38 0 L 74.21 0 L 74.21 -4.96 L 50.96 -4.96 L 50.96 -43.4 Z M 109.12 -32.05 L 114.39 -34.41 C 110.73 -40.55 104.41 -44.39 96.78 -44.39 C 84.63 -44.39 75.76 -34.78 75.76 -21.76 C 75.76 -8.62 85.13 0.99 98.02 0.99 C 105.77 0.99 112.59 -2.36 115.94 -7.75 L 115.94 -23.87 L 98.08 -23.87 L 98.08 -18.91 L 110.36 -18.91 L 110.36 -9.73 C 107.94 -6.32 103.17 -4.28 98.02 -4.28 C 88.54 -4.28 81.59 -11.66 81.59 -21.76 C 81.59 -31.74 88.04 -39.12 96.78 -39.12 C 101.99 -39.12 106.39 -36.39 109.12 -32.05 Z M 143.1 0.99 C 155.12 0.99 163.99 -8.62 163.99 -21.76 C 163.99 -34.78 155.12 -44.39 143.1 -44.39 C 130.94 -44.39 122.08 -34.78 122.08 -21.76 C 122.08 -8.62 130.94 0.99 143.1 0.99 Z M 143.1 -4.28 C 134.35 -4.28 127.91 -11.66 127.91 -21.76 C 127.91 -31.74 134.35 -39.12 143.1 -39.12 C 151.71 -39.12 158.16 -31.74 158.16 -21.76 C 158.16 -11.66 151.71 -4.28 143.1 -4.28 Z M 171.55 -43.4 L 171.55 0 L 193.44 0 C 200.82 0 205.72 -4.59 205.72 -11.53 C 205.72 -17.24 202.62 -21.27 197.47 -22.63 C 201.07 -24.37 203.24 -27.84 203.24 -32.43 C 203.24 -39.06 198.59 -43.4 191.58 -43.4 Z M 177.13 -4.96 L 177.13 -19.84 L 192.26 -19.84 C 196.66 -19.84 199.64 -16.93 199.64 -12.4 C 199.64 -7.81 196.66 -4.96 192.26 -4.96 Z M 177.13 -24.8 L 177.13 -38.44 L 191.02 -38.44 C 195.05 -38.44 197.78 -35.77 197.78 -31.62 C 197.78 -27.47 195.05 -24.8 191.02 -24.8 Z M 213.28 -43.4 L 213.28 0 L 242.73 0 L 242.73 -4.96 L 218.86 -4.96 L 218.86 -20.15 L 240.25 -20.15 L 240.25 -25.11 L 218.86 -25.11 L 218.86 -38.44 L 242.11 -38.44 L 242.11 -43.4 Z M 249.98 -43.4 L 249.98 0 L 255.56 0 L 255.56 -35.53 L 277.88 0 L 284.7 0 L 284.7 -43.4 L 279.12 -43.4 L 279.12 -7.87 L 256.8 -43.4 Z M 325.62 -32.05 L 330.89 -34.41 C 327.24 -40.55 320.91 -44.39 313.29 -44.39 C 301.13 -44.39 292.27 -34.78 292.27 -21.76 C 292.27 -8.62 301.63 0.99 314.53 0.99 C 322.28 0.99 329.1 -2.36 332.44 -7.75 L 332.44 -23.87 L 314.59 -23.87 L 314.59 -18.91 L 326.86 -18.91 L 326.86 -9.73 C 324.45 -6.32 319.67 -4.28 314.53 -4.28 C 305.04 -4.28 298.1 -11.66 298.1 -21.76 C 298.1 -31.74 304.54 -39.12 313.29 -39.12 C 318.49 -39.12 322.9 -36.39 325.62 -32.05 Z M 352.97 -43.4 L 336.85 0 L 342.8 0 L 346.02 -8.99 L 367.1 -8.99 L 370.33 0 L 376.28 0 L 360.16 -43.4 Z M 347.76 -13.95 L 356.56 -38.56 L 365.37 -13.95 Z M 382.04 -43.4 L 382.04 0 L 410.87 0 L 410.87 -4.96 L 387.62 -4.96 L 387.62 -43.4 Z" stroke-linecap="round" />
</g>
</g>
</g>
<g transform="matrix(1.9211538461538462 0 0 1.9211538461538462 640.6546331730768 792.8166623641621)" id="tagline-462fde7e-155e-4bac-a48e-698073042215-logo"  >
<g style=""  paint-order="stroke"   >
		<g transform="matrix(1 0 0 1 0 0)" id="tagline-462fde7e-155e-4bac-a48e-698073042215-logo-path-0"  >
<path style="stroke: none; stroke-width: 0; stroke-dasharray: none; stroke-linecap: butt; stroke-dashoffset: 0; stroke-linejoin: miter; stroke-miterlimit: 4; fill: rgb(0,0,0); fill-rule: nonzero; opacity: 1;"  paint-order="stroke"  transform=" translate(-171.39000000000001, 10.15)" d="M 1.74 -20.3 L 1.74 0 L 4.35 0 L 4.35 -7.98 L 9.34 -7.98 L 14.5 0 L 18.13 0 L 18.13 -2.32 L 16.1 -2.32 L 12.3 -8.18 C 15.05 -8.82 16.76 -11.02 16.76 -14.15 C 16.76 -17.86 14.3 -20.3 10.59 -20.3 Z M 4.35 -10.29 L 4.35 -17.98 L 10.21 -17.98 C 12.47 -17.98 14.01 -16.47 14.01 -14.15 C 14.01 -11.8 12.47 -10.29 10.21 -10.29 Z M 30.48 -20.3 L 30.48 0 L 44.25 0 L 44.25 -2.32 L 33.09 -2.32 L 33.09 -9.43 L 43.09 -9.43 L 43.09 -11.75 L 33.09 -11.75 L 33.09 -17.98 L 43.96 -17.98 L 43.96 -20.3 Z M 63.86 0.46 C 67.95 0.46 72.01 -1.1 72.01 -5.42 C 72.01 -9.89 67.83 -11.08 64.21 -12.06 C 61.45 -12.82 59.02 -13.25 59.02 -15.4 C 59.02 -17.14 61.16 -18.3 64.03 -18.3 C 66.09 -18.3 67.86 -17.49 68.93 -14.99 L 71.4 -16.1 C 70.01 -19.46 67.22 -20.76 64.03 -20.76 C 59.91 -20.76 56.35 -18.65 56.35 -15.31 C 56.35 -11.54 60 -10.41 63.45 -9.43 C 66.5 -8.55 69.34 -7.98 69.34 -5.31 C 69.34 -3.07 66.93 -2 64.03 -2 C 61.6 -2 59.54 -2.87 58.29 -5.31 L 55.8 -4.21 C 57.62 -0.67 60.38 0.46 63.86 0.46 Z M 84.71 -20.3 L 84.71 0 L 98.48 0 L 98.48 -2.32 L 87.32 -2.32 L 87.32 -9.43 L 97.32 -9.43 L 97.32 -11.75 L 87.32 -11.75 L 87.32 -17.98 L 98.19 -17.98 L 98.19 -20.3 Z M 116.96 -20.3 L 109.42 0 L 112.2 0 L 113.71 -4.21 L 123.57 -4.21 L 125.08 0 L 127.86 0 L 120.32 -20.3 Z M 114.52 -6.53 L 118.64 -18.04 L 122.76 -6.53 Z M 139.75 -20.3 L 139.75 0 L 142.36 0 L 142.36 -7.98 L 147.35 -7.98 L 152.51 0 L 156.14 0 L 156.14 -2.32 L 154.11 -2.32 L 150.31 -8.18 C 153.06 -8.82 154.77 -11.02 154.77 -14.15 C 154.77 -17.86 152.31 -20.3 148.6 -20.3 Z M 142.36 -10.29 L 142.36 -17.98 L 148.22 -17.98 C 150.48 -17.98 152.02 -16.47 152.02 -14.15 C 152.02 -11.8 150.48 -10.29 148.22 -10.29 Z M 182.96 -14.99 L 185.43 -16.1 C 183.72 -18.97 180.76 -20.76 177.19 -20.76 C 171.51 -20.76 167.36 -16.27 167.36 -10.18 C 167.36 -4.03 171.51 0.46 177.19 0.46 C 180.76 0.46 183.72 -1.33 185.43 -4.21 L 182.93 -5.31 C 181.69 -3.25 179.63 -2 177.19 -2 C 173.1 -2 170.09 -5.45 170.09 -10.18 C 170.09 -14.85 173.1 -18.3 177.19 -18.3 C 179.63 -18.3 181.69 -17.02 182.96 -14.99 Z M 197.75 -20.3 L 197.75 0 L 200.36 0 L 200.36 -9.43 L 211.09 -9.43 L 211.09 0 L 213.7 0 L 213.7 -20.3 L 211.09 -20.3 L 211.09 -11.75 L 200.36 -11.75 L 200.36 -20.3 Z M 243.14 -20.3 L 243.14 0 L 256.62 0 L 256.62 -2.32 L 245.75 -2.32 L 245.75 -20.3 Z M 274.37 -20.3 L 266.83 0 L 269.61 0 L 271.12 -4.21 L 280.98 -4.21 L 282.49 0 L 285.27 0 L 277.73 -20.3 Z M 271.93 -6.53 L 276.05 -18.04 L 280.17 -6.53 Z M 297.16 -20.3 L 297.16 0 L 307.4 0 C 310.85 0 313.14 -2.15 313.14 -5.39 C 313.14 -8.06 311.69 -9.95 309.28 -10.59 C 310.97 -11.4 311.98 -13.02 311.98 -15.17 C 311.98 -18.27 309.81 -20.3 306.53 -20.3 Z M 299.77 -2.32 L 299.77 -9.28 L 306.85 -9.28 C 308.91 -9.28 310.3 -7.92 310.3 -5.8 C 310.3 -3.65 308.91 -2.32 306.85 -2.32 Z M 299.77 -11.6 L 299.77 -17.98 L 306.27 -17.98 C 308.15 -17.98 309.43 -16.73 309.43 -14.79 C 309.43 -12.85 308.15 -11.6 306.27 -11.6 Z M 332.89 0.46 C 336.98 0.46 341.04 -1.1 341.04 -5.42 C 341.04 -9.89 336.86 -11.08 333.24 -12.06 C 330.48 -12.82 328.05 -13.25 328.05 -15.4 C 328.05 -17.14 330.19 -18.3 333.06 -18.3 C 335.12 -18.3 336.89 -17.49 337.97 -14.99 L 340.43 -16.1 C 339.04 -19.46 336.25 -20.76 333.06 -20.76 C 328.95 -20.76 325.38 -18.65 325.38 -15.31 C 325.38 -11.54 329.03 -10.41 332.48 -9.43 C 335.53 -8.55 338.37 -7.98 338.37 -5.31 C 338.37 -3.07 335.96 -2 333.06 -2 C 330.63 -2 328.57 -2.87 327.32 -5.31 L 324.83 -4.21 C 326.66 -0.67 329.41 0.46 332.89 0.46 Z" stroke-linecap="round" />
</g>
</g>
</g>
</svg>